<svg xmlns="http://www.w3.org/2000/svg" viewBox="0 0 16 16" shape-rendering="crispEdges">
<rect width="16" height="16" rx="3" fill="#1f2a44"/>
<rect x="3" y="3" width="1" height="1" fill="#dfe6ee"/>
<rect x="3" y="4" width="1" height="1" fill="#dfe6ee"/>
<rect x="4" y="5" width="1" height="1" fill="#dfe6ee"/>
<rect x="12" y="3" width="1" height="1" fill="#dfe6ee"/>
<rect x="12" y="4" width="1" height="1" fill="#dfe6ee"/>
<rect x="11" y="5" width="1" height="1" fill="#dfe6ee"/>
<rect x="6" y="4" width="1" height="1" fill="#dfe6ee"/>
<rect x="7" y="4" width="1" height="1" fill="#dfe6ee"/>
<rect x="8" y="4" width="1" height="1" fill="#dfe6ee"/>
<rect x="9" y="4" width="1" height="1" fill="#dfe6ee"/>
<rect x="5" y="5" width="1" height="1" fill="#dfe6ee"/>
<rect x="6" y="5" width="1" height="1" fill="#dfe6ee"/>
<rect x="7" y="5" width="1" height="1" fill="#dfe6ee"/>
<rect x="8" y="5" width="1" height="1" fill="#dfe6ee"/>
<rect x="9" y="5" width="1" height="1" fill="#dfe6ee"/>
<rect x="10" y="5" width="1" height="1" fill="#dfe6ee"/>
<rect x="4" y="6" width="1" height="1" fill="#dfe6ee"/>
<rect x="5" y="6" width="1" height="1" fill="#dfe6ee"/>
<rect x="6" y="6" width="1" height="1" fill="#dfe6ee"/>
<rect x="7" y="6" width="1" height="1" fill="#dfe6ee"/>
<rect x="8" y="6" width="1" height="1" fill="#dfe6ee"/>
<rect x="9" y="6" width="1" height="1" fill="#dfe6ee"/>
<rect x="10" y="6" width="1" height="1" fill="#dfe6ee"/>
<rect x="11" y="6" width="1" height="1" fill="#dfe6ee"/>
<rect x="4" y="7" width="1" height="1" fill="#dfe6ee"/>
<rect x="5" y="7" width="1" height="1" fill="#dfe6ee"/>
<rect x="6" y="7" width="1" height="1" fill="#dfe6ee"/>
<rect x="7" y="7" width="1" height="1" fill="#dfe6ee"/>
<rect x="8" y="7" width="1" height="1" fill="#dfe6ee"/>
<rect x="9" y="7" width="1" height="1" fill="#dfe6ee"/>
<rect x="10" y="7" width="1" height="1" fill="#dfe6ee"/>
<rect x="11" y="7" width="1" height="1" fill="#dfe6ee"/>
<rect x="7" y="8" width="1" height="1" fill="#dfe6ee"/>
<rect x="8" y="8" width="1" height="1" fill="#dfe6ee"/>
<rect x="4" y="9" width="1" height="1" fill="#C0392B"/>
<rect x="5" y="9" width="1" height="1" fill="#C0392B"/>
<rect x="6" y="9" width="1" height="1" fill="#C0392B"/>
<rect x="7" y="9" width="1" height="1" fill="#C0392B"/>
<rect x="8" y="9" width="1" height="1" fill="#C0392B"/>
<rect x="9" y="9" width="1" height="1" fill="#C0392B"/>
<rect x="10" y="9" width="1" height="1" fill="#C0392B"/>
<rect x="11" y="9" width="1" height="1" fill="#C0392B"/>
<rect x="5" y="10" width="1" height="1" fill="#C0392B"/>
<rect x="6" y="10" width="1" height="1" fill="#C0392B"/>
<rect x="7" y="10" width="1" height="1" fill="#C0392B"/>
<rect x="8" y="10" width="1" height="1" fill="#C0392B"/>
<rect x="9" y="10" width="1" height="1" fill="#C0392B"/>
<rect x="10" y="10" width="1" height="1" fill="#C0392B"/>
<rect x="6" y="11" width="1" height="1" fill="#C0392B"/>
<rect x="7" y="11" width="1" height="1" fill="#C0392B"/>
<rect x="8" y="11" width="1" height="1" fill="#C0392B"/>
<rect x="9" y="11" width="1" height="1" fill="#C0392B"/>
<rect x="7" y="12" width="1" height="1" fill="#C0392B"/>
<rect x="8" y="12" width="1" height="1" fill="#C0392B"/>
<!-- L'atelier : une pastille sombre, liseré blanc, portant un pinceau blanc (Tabler brush, au trait) -->
<circle cx="12" cy="4" r="3.7" fill="#1C1C1E" stroke="#ffffff" stroke-width="0.6" shape-rendering="geometricPrecision"/>
<g fill="none" stroke="#ffffff" stroke-width="0.55" stroke-linecap="round" stroke-linejoin="round" shape-rendering="geometricPrecision">
<path d="M10.2 6.1c0-0.6 0.4-1 1-1s1 0.4 1 1c0 0.8-0.9 1-2 1z"/>
<path d="M11.8 5.3l1.9-2.4a0.5 0.5 0 0 0-0.7-0.7l-2.4 1.9"/>
<path d="M10.9 4.5l0.9 0.9"/>
</g>
</svg>
